<?xml version="1.0" encoding="iso-8859-1"?>
<!-- Generator: Adobe Illustrator 16.0.0, SVG Export Plug-In . SVG Version: 6.00 Build 0)  -->
<!DOCTYPE svg PUBLIC "-//W3C//DTD SVG 1.1//EN" "http://www.w3.org/Graphics/SVG/1.1/DTD/svg11.dtd">
<svg version="1.1" id="Capa_1" xmlns="http://www.w3.org/2000/svg" xmlns:xlink="http://www.w3.org/1999/xlink" x="0px" y="0px"
	 width="620.457px" height="620.458px" viewBox="0 0 620.457 620.458" style="enable-background:new 0 0 620.457 620.458;"
	 xml:space="preserve">
<g>
	<path style="fill:#27241F;" d="M334.078,310.229c-71.98,0-130.308-58.346-130.308-130.317S262.098,49.6,334.078,49.6
		c71.966,0,130.312,58.332,130.312,130.312S406.044,310.229,334.078,310.229L334.078,310.229z M334.012,0
		C233.636,0,152.236,81.399,152.236,181.775c0,75.27,45.608,139.718,110.62,167.308c0,0,0.417,0.133,1.109,0.53
		c4.504,2.333,21.845,12.155,24.291,31.155c0.142,1.374,0.275,3.005,0.275,4.513c0,25.267,0,103.115,0,103.115
		s0.142,1.498-0.275,4.22c-0.673,4.655-2.579,12.847-8.182,23.911c-7.519,10.666-12.022,23.75-12.022,37.962
		c0,36.464,29.505,65.969,65.96,65.969c36.44,0,66.115-29.505,66.115-65.969c0-10.372-2.312-20.062-6.693-28.832
		c-1.669-2.579-3.015-5.044-4.247-7.376c-0.133-0.266-0.266-0.398-0.398-0.664c-8.628-16.667-9.026-27.03-9.026-28.964
		c0-0.114,0-0.237,0-0.237s0-77.868,0-103.116c0-21.445,18.583-32.529,24.158-35.497c0.417-0.17,0.701-0.284,0.967-0.436
		c0.151,0,0.417-0.133,0.683-0.266c64.869-27.723,110.341-92.193,110.341-167.307C515.91,81.409,434.524,0,334.012,0L334.012,0z"/>
	<path style="fill:#27241F;" d="M430.372,141.424c-2.01,1.834-118.812,109.601-142.287,131.544
		c18.08,10.377,38.293,11.211,47.514,10.851c7.718-7.239,69.932-65.704,101.997-95.014
		C439.512,167.928,433.823,150.009,430.372,141.424L430.372,141.424z"/>
	<path style="fill:#27241F;" d="M419.412,121.016C397.34,140.959,291.015,239.192,272.005,256.87c0,0,0,0-2.512,2.261
		c-0.152,0-0.275,0.266-0.541,0.266c-0.266,0.398-0.531,0.668-0.929,0.929c-7.433-5.708-18.213-19.408-18.213-19.408l2.256-1.854
		c6.115-5.855,137.555-127.075,149.255-137.85C406.518,105.875,413.571,112.64,419.412,121.016L419.412,121.016z"/>
	<path style="fill:#27241F;" d="M269.493,259.122c-0.275,0.265-0.408,0.389-0.408,0.389s0,0-0.133-0.124
		C269.218,259.387,269.351,259.122,269.493,259.122L269.493,259.122z"/>
	<path style="fill:#27241F;" d="M517.085,410.273c0,0,5.954,66.879,79.016,80.778c-27.515-5.044-83.434,43.594-81.348,79.526
		c-1.365-26.717-29.789-75.487-79.015-80.778C459.668,491.772,512.117,458.076,517.085,410.273L517.085,410.273z"/>
	<path style="fill:#27241F;" d="M80.849,212.65c0,0,4.124,46.443,54.862,56.095c-19.114-3.494-57.929,30.282-56.502,55.213
		c-0.934-18.536-20.678-52.407-54.852-56.085C40.977,269.238,77.402,245.853,80.849,212.65L80.849,212.65z"/>
	<path style="fill:#27241F;" d="M156.313,330.101c0,0,5.95,66.879,79.02,80.778c-27.514-5.024-83.438,43.613-81.362,79.546
		c-1.365-26.718-29.785-75.507-79.005-80.778C98.906,411.6,151.34,377.923,156.313,330.101L156.313,330.101z"/>
</g>
<g>
</g>
<g>
</g>
<g>
</g>
<g>
</g>
<g>
</g>
<g>
</g>
<g>
</g>
<g>
</g>
<g>
</g>
<g>
</g>
<g>
</g>
<g>
</g>
<g>
</g>
<g>
</g>
<g>
</g>
</svg>
