<?xml version="1.0" standalone="no"?>
<!DOCTYPE svg PUBLIC "-//W3C//DTD SVG 20010904//EN"
 "http://www.w3.org/TR/2001/REC-SVG-20010904/DTD/svg10.dtd">
<svg version="1.0" xmlns="http://www.w3.org/2000/svg"
 width="100.000000pt" height="100.000000pt" viewBox="0 0 100.000000 100.000000"
 preserveAspectRatio="xMidYMid meet">

<g transform="translate(0.000000,100.000000) scale(0.100000,-0.100000)"
fill="#000000" stroke="none">
<path d="M45 827 c-3 -6 -4 -149 -3 -317 l3 -305 455 0 455 0 0 315 0 315
-453 3 c-359 2 -454 0 -457 -11z m504 -101 c67 -35 65 -143 -4 -174 -51 -23
-107 -7 -131 39 -47 91 44 182 135 135z m56 -238 c25 -11 55 -54 55 -78 0 -6
-55 -10 -160 -10 -122 0 -160 3 -160 13 1 22 27 60 51 73 30 17 179 18 214 2z
m-285 -168 l0 -40 -60 0 -60 0 0 40 0 40 60 0 60 0 0 -40z m160 0 l0 -40 -60
0 -60 0 0 40 0 40 60 0 60 0 0 -40z m160 0 l0 -40 -60 0 -60 0 0 40 0 40 60 0
60 0 0 -40z m160 0 l0 -40 -60 0 -60 0 0 40 0 40 60 0 60 0 0 -40z"/>
<path d="M285 149 c-16 -25 19 -29 221 -27 178 3 209 5 209 18 0 13 -31 15
-212 18 -147 2 -214 -1 -218 -9z"/>
</g>
</svg>
