<?xml version="1.0" ?>
<svg height="24" id="svg1976" version="1.1" viewBox="0 0 6.3499999 6.3500002" width="24" xmlns="http://www.w3.org/2000/svg">
  <defs id="defs1970"/>
  <g id="layer1" style="display:inline">
    <path d="M 4.8168655,0.00127766 C 4.6890373,0.00562477 4.5613573,0.02597387 4.4370455,0.06070573 3.9398008,0.19964558 3.4688398,0.53025887 3.0211092,0.92421897 2.1256507,1.712159 1.3105118,2.7893392 0.8806723,3.2191694 a 0.26460945,0.26460945 0 0 0 0,0.374654 L 2.7849474,5.4981 a 0.26460945,0.26460945 0 0 0 0.3731049,0 C 3.590482,5.06566 4.6594992,4.2400777 5.4374986,3.3344079 5.8265128,2.8815777 6.1505428,2.4049009 6.2849934,1.9045209 6.4194441,1.4041409 6.3263981,0.85817657 5.9041389,0.4358767 5.5874195,0.1191588 5.2003552,-0.01176471 4.8168655,0.00127766 Z M 4.4845858,1.0885499 c 0.2062348,3.439e-4 0.4126019,0.07877 0.5684415,0.234611 0.3116818,0.3116808 0.3116791,0.8236527 0,1.1353314 -0.3116845,0.3116855 -0.8251984,0.3127142 -1.1368829,0.00103 -0.3116792,-0.3116813 -0.3116845,-0.8262295 0,-1.1379151 C 4.0719866,1.1657698 4.2783537,1.0882027 4.4845858,1.0885483 Z M 2.1395096,2.6026696 3.7699012,4.2330609 C 3.6323708,4.3548619 3.4989362,4.4745025 3.3735422,4.5849774 L 1.7901776,3.0036787 C 1.9002601,2.8770351 2.0184998,2.7418139 2.1395096,2.6026696 Z" id="path660" style="fill:#FFCFDF;stroke:none"/>
    <path d="M 1.562284,1.1097372 A 0.26460945,0.26460945 0 0 0 1.3824494,1.1857017 L 0.1034588,2.4667605 a 0.26460945,0.26460945 0 0 0 0.1658805,0.451652 l 0.5307171,0.041858 C 1.2014267,2.5085594 1.746389,1.8496148 2.3720545,1.2156739 L 1.6051756,1.1112876 a 0.26460945,0.26460945 0 0 0 -0.042892,-0.00156 z M 1.9426226,2.5773481 C 1.8103071,2.7294949 1.6817937,2.876367 1.5607335,3.0155643 A 0.26460945,0.26460945 0 0 0 1.7359168,2.9220299 L 1.9875806,2.6223064 Z m 3.2142748,1.407666 C 4.5262947,4.6218117 3.8676357,5.1766596 3.4154019,5.5828493 l 0.041341,0.5229656 A 0.26460945,0.26460945 0 0 0 3.9078788,6.2716962 L 5.1894517,4.9921878 A 0.26460945,0.26460945 0 0 0 5.2633498,4.7699791 Z M 3.7523303,4.3870566 3.4531236,4.6387209 A 0.26460945,0.26460945 0 0 0 3.3595907,4.8201052 C 3.4985102,4.6975791 3.6454942,4.5664428 3.7972909,4.4320152 Z" id="path666" style="fill:#FFCFDF;stroke:none"/>
    <path d="m 1.3239925,4.7619079 a 0.2645835,0.2645835 0 0 0 -0.17968,0.0762 l -1.0586,1.05859 a 0.2645835,0.2645835 0 0 0 0,0.375 0.2645835,0.2645835 0 0 0 0.375,0 l 1.0586,-1.05859 a 0.2645835,0.2645835 0 0 0 0,-0.375 0.2645835,0.2645835 0 0 0 -0.19532,-0.0762 z" id="path672" style="fill:#FFCFDF;stroke:none"/>
    <path d="m 0.7947025,3.9669879 a 0.2645835,0.2645835 0 0 0 -0.17969,0.0781 l -0.5293,0.52929 a 0.2645835,0.2645835 0 0 0 0,0.375 0.2645835,0.2645835 0 0 0 0.375,0 l 0.5293,-0.52929 a 0.2645835,0.2645835 0 0 0 0,-0.375 0.2645835,0.2645835 0 0 0 -0.19531,-0.0781 z" id="path674" style="fill:#FFCFDF;stroke:none"/>
    <path d="m 2.1169625,5.2912079 a 0.2645835,0.2645835 0 0 0 -0.17773,0.0762 l -0.5293,0.5293 a 0.2645835,0.2645835 0 0 0 0,0.375 0.2645835,0.2645835 0 0 0 0.37305,0 l 0.52929,-0.5293 a 0.2645835,0.2645835 0 0 0 0,-0.375 0.2645835,0.2645835 0 0 0 -0.19531,-0.0762 z" id="path676" style="fill:#FFCFDF;stroke:none"/>
  </g>
</svg>
