<?xml version="1.0" standalone="no"?>
<!DOCTYPE svg PUBLIC "-//W3C//DTD SVG 20010904//EN"
 "http://www.w3.org/TR/2001/REC-SVG-20010904/DTD/svg10.dtd">
<svg version="1.0" xmlns="http://www.w3.org/2000/svg"
 width="90.000000pt" height="90.000000pt" viewBox="0 0 90.000000 90.000000"
 preserveAspectRatio="xMidYMid meet">

<g transform="translate(0.000000,90.000000) scale(0.100000,-0.100000)"
fill="#000000" stroke="none">
<path d="M110 820 c-24 -24 -25 -48 -5 -77 12 -17 15 -78 17 -349 l3 -329 25
0 25 0 3 329 c2 271 5 332 17 349 8 12 15 29 15 39 0 24 -35 58 -60 58 -11 0
-29 -9 -40 -20z"/>
<path d="M245 707 c-3 -7 -4 -127 -3 -267 3 -220 5 -255 18 -258 9 -1 135 53
280 122 228 107 265 127 265 146 0 19 -37 39 -264 146 -145 68 -270 124 -278
124 -7 0 -16 -6 -18 -13z"/>
</g>
</svg>
