<?xml version="1.0" standalone="no"?>
<!DOCTYPE svg PUBLIC "-//W3C//DTD SVG 20010904//EN"
 "http://www.w3.org/TR/2001/REC-SVG-20010904/DTD/svg10.dtd">
<svg version="1.0" xmlns="http://www.w3.org/2000/svg"
 width="96.000000pt" height="96.000000pt" viewBox="0 0 96.000000 96.000000"
 preserveAspectRatio="xMidYMid meet">

<g transform="translate(0.000000,96.000000) scale(0.100000,-0.100000)"
fill="#000000" stroke="none">
<path d="M124 759 c-18 -20 -19 -39 -19 -279 0 -240 1 -259 19 -279 19 -21 26
-21 356 -21 330 0 337 0 356 21 18 20 19 39 19 279 0 240 -1 259 -19 279 -19
21 -26 21 -356 21 -330 0 -337 0 -356 -21z m258 -116 c36 -32 12 -103 -35
-103 -49 0 -75 64 -40 102 20 22 51 23 75 1z m334 -239 c73 -65 74 -67 74
-115 l0 -49 -225 0 c-124 0 -225 2 -225 4 0 2 54 54 120 115 150 139 152 139
256 45z m-340 -17 l26 -23 -70 -62 c-64 -57 -73 -62 -116 -62 -46 0 -46 0 -46
34 0 29 9 42 58 85 66 59 104 66 148 28z"/>
</g>
</svg>
