<?xml version="1.0" standalone="no"?>
<!DOCTYPE svg PUBLIC "-//W3C//DTD SVG 20010904//EN"
 "http://www.w3.org/TR/2001/REC-SVG-20010904/DTD/svg10.dtd">
<svg version="1.0" xmlns="http://www.w3.org/2000/svg"
 width="100.000000pt" height="100.000000pt" viewBox="0 0 100.000000 100.000000"
 preserveAspectRatio="xMidYMid meet">

<g transform="translate(0.000000,100.000000) scale(0.100000,-0.100000)"
fill="#000000" stroke="none">
<path d="M405 923 c-97 -35 -162 -102 -190 -196 -33 -110 -12 -199 70 -300 53
-66 55 -71 55 -128 l0 -59 70 0 70 0 0 147 0 147 -42 43 c-33 34 -39 46 -30
55 9 9 21 3 52 -27 l40 -39 40 39 c31 30 43 36 52 27 9 -9 3 -21 -30 -55 l-42
-43 0 -147 0 -147 70 0 70 0 0 65 c0 62 2 66 45 117 76 90 90 122 90 213 0 91
-20 146 -74 208 -71 81 -213 117 -316 80z"/>
<path d="M340 160 c0 -42 26 -80 56 -80 9 0 29 -13 44 -30 20 -21 37 -30 60
-30 23 0 40 9 60 30 15 17 35 30 44 30 30 0 56 38 56 80 l0 40 -160 0 -160 0
0 -40z"/>
</g>
</svg>
