<?xml version="1.0" standalone="no"?>
<!DOCTYPE svg PUBLIC "-//W3C//DTD SVG 20010904//EN"
 "http://www.w3.org/TR/2001/REC-SVG-20010904/DTD/svg10.dtd">
<svg version="1.0" xmlns="http://www.w3.org/2000/svg"
 width="100.000000pt" height="100.000000pt" viewBox="0 0 100.000000 100.000000"
 preserveAspectRatio="xMidYMid meet">

<g transform="translate(0.000000,100.000000) scale(0.100000,-0.100000)"
fill="#000000" stroke="none">
<path d="M420 927 c-49 -16 -133 -102 -148 -153 -7 -23 -12 -71 -12 -108 l0
-66 -50 0 c-37 0 -55 -5 -70 -20 -19 -19 -20 -33 -20 -280 0 -247 1 -261 20
-280 19 -19 33 -20 360 -20 327 0 341 1 360 20 19 19 20 33 20 280 0 247 -1
261 -20 280 -15 15 -33 20 -70 20 l-50 0 0 66 c0 91 -16 138 -67 194 -65 72
-158 97 -253 67z m190 -61 c61 -40 83 -86 88 -183 l5 -83 -202 0 -201 0 0 63
c0 34 5 79 11 100 13 46 76 113 121 126 53 16 135 6 178 -23z m-69 -487 c16
-16 19 -28 14 -47 -3 -15 -9 -47 -13 -71 -4 -25 -14 -49 -24 -55 -28 -17 -52
5 -60 55 -4 24 -10 56 -13 71 -8 30 22 68 55 68 11 0 29 -9 41 -21z"/>
</g>
</svg>
