<?xml version="1.0" encoding="iso-8859-1"?>
<svg version="1.1" id="Capa_1" xmlns="http://www.w3.org/2000/svg" xmlns:xlink="http://www.w3.org/1999/xlink" x="0px" y="0px"
	 width="377.303px" height="377.302px" viewBox="0 0 377.303 377.302" style="enable-background:new 0 0 377.303 377.302;"
	 xml:space="preserve">
<g>
	<g id="_x36_6._Cut">
		<g>
			<path d="M355.265,136.577c-24.342-24.337-64.016-24.093-88.637,0.525c-6.111,6.111-10.704,13.136-13.802,20.63l-52.878,0.306
				l0.557-95.036c0.101-17.342-9.802-41.306-22.103-53.523l-2.484-2.464c-12.307-12.225-22.285-8.061-22.277,9.287l0.03,142.021
				l-133.606,0.77c-17.342,0.1-21.305,9.962-8.846,22.037l1.719,1.665c12.459,12.055,36.616,21.761,53.956,21.66l86.769-0.505
				l0.008,52.866c-7.448,3.105-14.451,7.69-20.526,13.754c-24.622,24.625-24.854,64.307-0.525,88.632
				c24.333,24.341,64.01,24.097,88.636-0.521c24.626-24.618,24.862-64.308,0.529-88.633c-6.544-6.548-14.227-11.261-22.414-14.25
				l0.305-52.117l52.185-0.309c2.99,8.168,7.69,15.825,14.23,22.357c24.341,24.342,64.015,24.093,88.637-0.513
				C379.345,200.591,379.585,160.914,355.265,136.577z M199.11,336.748c-12.311,12.363-32.153,12.479-44.324,0.265
				c-12.167-12.219-12.041-32.136,0.26-44.486c12.309-12.358,32.16-12.487,44.324-0.269
				C211.538,304.464,211.422,324.389,199.11,336.748z M332.582,203.281c-12.307,12.351-32.155,12.475-44.322,0.252
				c-12.166-12.21-12.042-32.123,0.261-44.49c12.307-12.347,32.155-12.473,44.322-0.256
				C345.009,171.003,344.885,190.91,332.582,203.281z" fill="#e67cbd"/>
		</g>
	</g>
</g>
</svg>
