<?xml version="1.0" standalone="no"?>
<!DOCTYPE svg PUBLIC "-//W3C//DTD SVG 20010904//EN"
 "http://www.w3.org/TR/2001/REC-SVG-20010904/DTD/svg10.dtd">
<svg version="1.0" xmlns="http://www.w3.org/2000/svg"
 width="100.000000pt" height="100.000000pt" viewBox="0 0 100.000000 100.000000"
 preserveAspectRatio="xMidYMid meet">

<g transform="translate(0.000000,100.000000) scale(0.100000,-0.100000)"
fill="#000000" stroke="none">
<path d="M553 964 c-47 -23 -68 -78 -93 -244 -11 -80 -23 -152 -26 -161 -3
-11 -28 -23 -69 -33 -84 -21 -82 -21 -99 18 -20 47 -59 71 -117 71 -60 0 -99
-27 -119 -83 -13 -37 -13 -47 0 -84 30 -85 109 -107 224 -64 38 14 93 29 123
33 l54 6 -7 -39 c-4 -21 -15 -57 -24 -79 -29 -69 -43 -139 -36 -180 27 -142
235 -133 252 11 8 66 -33 121 -109 147 -4 1 1 31 13 67 22 70 104 596 95 617
-6 17 -23 16 -62 -3z m-356 -426 c29 -27 29 -65 1 -95 -27 -29 -65 -29 -95 -1
-29 27 -29 65 -1 95 27 29 65 29 95 1z m299 -29 c10 -17 -13 -36 -27 -22 -12
12 -4 33 11 33 5 0 12 -5 16 -11z m41 -311 c29 -27 29 -65 1 -95 -27 -29 -65
-29 -95 -1 -29 27 -29 65 -1 95 27 29 65 29 95 1z"/>
<path d="M805 600 c-66 -10 -138 -21 -161 -25 l-41 -6 -10 -67 c-6 -37 -10
-68 -9 -69 0 0 68 9 149 22 116 18 157 29 186 48 39 26 67 76 57 102 -7 18
-18 18 -171 -5z"/>
</g>
</svg>
